<svg width="20" height="18" viewBox="0 0 20 18" fill="none" xmlns="http://www.w3.org/2000/svg">
<path d="M4.93994 2C4.93968 2.53043 4.72871 3.03904 4.35345 3.41392C3.97819 3.78881 3.46937 3.99927 2.93894 3.999C2.40851 3.99874 1.89991 3.78777 1.52502 3.41251C1.15014 3.03725 0.939676 2.52843 0.939942 1.998C0.940207 1.46757 1.15117 0.958965 1.52644 0.58408C1.9017 0.209195 2.41051 -0.00126442 2.94094 -0.0009992C3.47137 -0.000733984 3.97998 0.210234 4.35486 0.585494C4.72975 0.960755 4.94021 1.46957 4.93994 2ZM4.99994 5.48H0.999942V18H4.99994V5.48ZM11.3199 5.48H7.33994V18H11.2799V11.43C11.2799 7.77 16.0499 7.43 16.0499 11.43V18H19.9999V10.07C19.9999 3.9 12.9399 4.13 11.2799 7.16L11.3199 5.48Z" fill="#F8F8F8"/>
</svg>
